#define a9b13f373c7540dcd979392ed5a8292fv4TZk57brcHFkNUt_width 16
#define a9b13f373c7540dcd979392ed5a8292fv4TZk57brcHFkNUt_height 16
static char a9b13f373c7540dcd979392ed5a8292fv4TZk57brcHFkNUt_bits[] = {
  0x00, 0x00, 0xFE, 0x0F, 0xFE, 0x3F, 0x00, 0x78, 0x00, 0xE0, 0xFC, 0x61, 
  0xFE, 0x63, 0x06, 0x67, 0x06, 0x66, 0x76, 0x66, 0xF6, 0x67, 0xC6, 0x63, 
  0x06, 0x70, 0xFE, 0x7F, 0xF8, 0x3F, 0x00, 0x00, };
